<?xml version="1.0" standalone="no"?>
<!DOCTYPE svg PUBLIC "-//W3C//DTD SVG 20010904//EN"
 "http://www.w3.org/TR/2001/REC-SVG-20010904/DTD/svg10.dtd">
<svg version="1.0" xmlns="http://www.w3.org/2000/svg"
 width="296.000000pt" height="296.000000pt" viewBox="0 0 296.000000 296.000000"
 preserveAspectRatio="xMidYMid meet">
<metadata>
Created by potrace 1.14, written by Peter Selinger 2001-2017
</metadata>
<g transform="translate(0.000000,296.000000) scale(0.100000,-0.100000)"
fill="#000000" stroke="none">
<path d="M1453 2433 c-12 -4 0 -90 15 -105 8 -8 18 -8 34 -1 23 11 23 11 -7
23 l-30 12 25 13 c22 12 23 14 8 20 -22 9 -24 25 -3 25 8 0 15 4 15 8 0 8 -38
11 -57 5z"/>
<path d="M1371 2421 c-18 -12 -5 -48 20 -56 24 -8 25 -26 2 -22 -10 1 -19 -2
-20 -8 -2 -5 9 -10 25 -10 22 0 28 5 30 28 2 15 -1 27 -5 27 -5 0 -18 7 -29
15 -18 14 -18 14 4 10 15 -3 22 0 19 8 -5 15 -28 20 -46 8z"/>
<path d="M1546 2399 c-9 -45 -7 -71 4 -64 5 3 7 12 3 20 -8 24 10 17 31 -10
24 -33 35 -24 31 25 -5 51 -11 60 -39 60 -18 0 -25 -7 -30 -31z"/>
<path d="M1243 2395 c-18 -13 -21 -20 -13 -40 6 -14 14 -36 20 -50 8 -22 12
-24 35 -13 30 13 33 28 5 28 -25 0 -26 16 -2 29 14 9 13 10 -12 11 -28 0 -28
1 -13 18 30 33 17 43 -20 17z"/>
<path d="M1636 2384 c-10 -25 -7 -49 7 -68 13 -17 16 -15 40 27 34 57 34 67 2
37 -20 -19 -25 -20 -25 -7 0 22 -17 30 -24 11z"/>
<path d="M1197 2373 c-4 -3 -7 -15 -7 -25 0 -21 -4 -22 -32 -7 -11 6 -19 7
-17 2 2 -4 11 -25 19 -45 14 -39 36 -53 27 -18 -6 25 13 32 36 12 9 -8 17 -10
17 -5 0 20 -37 93 -43 86z"/>
<path d="M1721 2358 c-18 -49 -22 -68 -14 -68 5 0 16 20 25 45 10 25 13 45 7
45 -5 0 -13 -10 -18 -22z"/>
<path d="M1751 2334 c-12 -15 -21 -35 -21 -45 0 -22 35 -43 58 -34 14 5 12 9
-11 21 -23 12 -26 18 -17 34 11 21 35 26 45 10 12 -19 25 0 15 21 -15 27 -45
24 -69 -7z"/>
<path d="M1074 2304 c-16 -13 -22 -21 -12 -18 11 4 25 -6 45 -30 37 -47 51
-46 23 0 -11 20 -19 43 -16 50 9 24 -10 23 -40 -2z"/>
<path d="M1842 2307 c-5 -6 -17 -26 -26 -44 -14 -29 -14 -33 0 -47 22 -23 37
-20 24 3 -15 29 -13 32 18 25 l27 -6 -24 20 c-28 23 -15 36 26 26 22 -4 25 -3
13 6 -35 26 -48 30 -58 17z"/>
<path d="M990 2232 c0 -4 5 -13 12 -20 9 -9 5 -12 -22 -12 l-33 0 23 -25 c13
-14 18 -25 12 -25 -6 0 -14 5 -17 10 -3 6 -14 10 -23 10 -12 -1 -7 -9 18 -30
39 -34 55 -37 69 -13 6 12 5 21 -7 31 -15 12 -13 13 16 8 43 -7 42 11 -2 47
-37 28 -46 32 -46 19z"/>
<path d="M1916 2199 c-35 -28 -35 -66 0 -80 21 -7 31 -6 45 7 25 23 32 49 19
74 -14 25 -30 25 -64 -1z m37 -46 c-8 -13 -19 -23 -23 -23 -18 0 -16 26 3 48
26 28 42 9 20 -25z"/>
<path d="M1336 2184 c-14 -14 -14 -19 3 -53 23 -44 18 -55 -33 -76 -35 -15
-41 -15 -74 1 -73 35 -171 -12 -173 -84 -5 -219 -4 -621 3 -634 9 -19 53 -24
63 -8 3 5 6 79 7 165 l0 154 42 9 c22 5 43 7 45 6 2 -2 3 -50 1 -106 -4 -202
-4 -209 19 -232 27 -27 51 -13 64 35 l9 34 56 -115 c59 -120 77 -137 112 -105
17 15 22 32 51 144 10 43 11 43 23 20 15 -31 51 -37 66 -10 6 11 12 59 14 107
4 79 7 90 39 137 20 29 39 66 42 82 14 62 16 66 29 56 11 -9 12 -37 6 -256 -3
-147 -2 -155 23 -155 46 0 51 12 49 122 0 93 2 106 23 138 21 31 43 112 60
221 5 35 19 55 60 84 20 15 20 15 -8 40 -32 29 -47 31 -86 10 -27 -14 -29 -13
-35 8 -10 39 -7 48 29 63 41 17 53 37 35 59 -16 19 -184 20 -218 2 l-23 -13
23 -21 c13 -12 34 -24 48 -28 24 -6 25 -10 25 -75 1 -76 1 -76 -65 -70 -43 3
-50 17 -49 99 0 42 -2 84 -6 93 -9 22 -32 30 -55 18 -21 -11 -28 -30 -32 -82
-1 -21 -5 -38 -8 -38 -4 0 -17 11 -30 25 l-24 26 22 6 c17 4 21 10 16 29 -3
13 1 37 10 55 9 18 16 37 16 44 0 15 -36 32 -83 39 -20 2 -50 14 -66 25 -35
25 -45 26 -65 5z m-132 -220 c9 -8 17 -30 18 -47 0 -18 2 -39 3 -47 3 -32 -28
-80 -52 -80 -17 0 -25 8 -31 33 -8 30 -6 117 3 145 6 17 40 15 59 -4z m147
-12 c-35 -63 -63 -69 -37 -8 10 25 19 34 30 30 11 -4 13 -11 7 -22z"/>
<path d="M1988 2123 c-21 -14 -38 -30 -38 -36 0 -6 3 -8 6 -5 3 4 19 2 35 -2
27 -8 29 -7 25 17 -5 24 -4 24 13 9 33 -30 42 -16 13 21 l-17 21 -37 -25z"/>
<path d="M767 1982 c-35 -39 -9 -96 61 -131 38 -20 26 -39 -33 -52 -61 -14
-70 -20 -79 -64 -9 -42 9 -62 73 -82 30 -10 56 -23 58 -29 2 -6 -19 -21 -46
-33 -69 -29 -77 -47 -45 -106 13 -26 23 -49 22 -51 -2 -1 -16 -5 -31 -8 -32
-6 -41 6 -42 58 -1 28 -8 44 -25 58 -32 26 -49 20 -80 -26 -42 -60 -51 -61
-91 -8 -19 26 -44 48 -56 50 -27 4 -63 -34 -63 -66 0 -32 -17 -62 -36 -62 -9
0 -29 11 -46 25 -35 29 -46 31 -76 9 -20 -14 -22 -23 -20 -82 l3 -67 -30 1
c-16 1 -45 4 -62 7 -26 4 -36 1 -48 -16 -20 -29 -19 -42 8 -69 46 -48 49 -55
32 -72 -9 -9 -27 -16 -40 -16 -13 0 -36 -10 -51 -23 l-27 -24 19 -32 c10 -17
29 -34 41 -37 39 -10 39 -42 0 -83 -26 -26 -35 -43 -33 -62 4 -40 12 -46 64
-53 27 -3 52 -9 55 -12 3 -4 -2 -27 -12 -53 -24 -59 -24 -62 1 -88 22 -23 39
-24 88 -5 15 6 35 6 48 1 21 -8 23 -14 19 -59 -4 -38 -1 -53 12 -65 26 -23 54
-18 85 14 47 49 81 46 92 -9 4 -20 42 -50 64 -50 21 0 45 26 59 63 11 29 32
35 53 14 74 -72 128 -56 128 37 0 48 21 62 68 47 27 -9 45 -10 65 -2 31 12 34
34 12 88 -9 20 -13 45 -9 56 5 17 12 19 50 13 36 -5 48 -2 64 14 28 28 25 42
-15 86 -47 51 -45 69 10 95 45 21 49 28 45 81 -1 23 6 31 49 53 28 14 51 28
51 31 0 4 -17 23 -38 43 -99 95 -182 225 -213 336 -23 82 -17 236 13 325 14
41 29 83 33 93 6 15 -1 17 -87 17 -79 0 -98 -3 -111 -18z m136 -24 c12 -6 15
-13 9 -21 -5 -7 -15 -29 -21 -49 l-12 -37 -45 27 c-43 26 -63 59 -49 82 8 13
92 11 118 -2z m-35 -241 c2 -34 -1 -57 -7 -57 -6 0 -35 9 -66 21 -51 19 -56
23 -53 47 2 23 10 29 48 39 70 18 75 15 78 -50z m21 -168 c7 -23 15 -47 18
-55 9 -23 -116 -13 -133 10 -17 25 0 51 46 70 51 22 56 20 69 -25z m-236 -158
c7 -7 4 -13 -9 -17 -10 -4 -30 -16 -43 -26 -28 -22 -41 -16 -35 16 2 14 -3 31
-11 40 -8 8 -15 17 -15 19 0 8 102 -21 113 -32z m311 -13 l27 -46 -52 -11
c-42 -9 -55 -9 -66 2 -11 11 -7 21 23 60 20 26 38 46 39 45 1 -2 14 -24 29
-50z m-453 15 c-5 -10 -11 -37 -15 -61 -6 -43 -33 -102 -48 -102 -4 0 -19 -23
-34 -52 -14 -28 -35 -59 -46 -67 -16 -14 -18 -21 -9 -44 20 -51 12 -87 -39
-181 -28 -51 -50 -103 -50 -114 0 -28 -7 -28 -37 4 -100 108 -118 304 -39 438
60 102 195 195 284 196 38 0 42 -2 33 -17z m307 -92 c79 -84 117 -190 110
-306 -6 -86 -39 -156 -109 -230 -126 -133 -314 -160 -487 -71 -37 19 -41 31
-12 39 11 3 28 20 37 37 10 18 28 44 40 59 l21 26 7 -27 c5 -18 14 -28 26 -28
19 0 23 14 19 73 -2 27 13 37 26 16 13 -22 109 -59 155 -59 37 0 50 -5 74 -30
16 -16 30 -28 33 -26 5 6 -27 66 -36 67 -4 0 -29 2 -57 4 -56 4 -104 22 -152
58 -36 27 -34 37 9 37 20 0 40 12 66 37 35 35 37 36 40 15 3 -18 10 -22 39
-22 l36 0 -38 35 c-31 30 -36 40 -30 63 4 15 8 42 8 61 2 32 0 34 -68 61 -96
38 -100 60 -11 60 61 0 66 -2 66 -22 0 -12 3 -18 6 -15 14 14 45 -16 70 -66
14 -29 49 -82 76 -118 45 -60 53 -66 76 -60 33 9 39 27 12 36 -36 11 -81 57
-125 125 -24 37 -58 84 -76 104 l-33 38 19 35 c10 19 30 40 44 48 32 16 68 0
119 -54z m295 -97 c8 -14 -56 -64 -82 -64 -18 0 -51 29 -51 44 0 6 14 28 31
49 l31 37 31 -26 c18 -15 35 -32 40 -40z"/>
<path d="M2015 1940 c-2 -3 5 -36 15 -74 59 -210 3 -410 -161 -581 -44 -45
-79 -85 -79 -88 0 -3 30 -23 66 -43 l65 -36 37 26 c36 26 37 26 40 6 4 -26
-14 -50 -38 -50 -9 0 -25 -9 -35 -20 -27 -29 -13 -64 37 -92 52 -29 58 -51 23
-88 -30 -31 -36 -77 -14 -91 8 -5 30 -8 49 -7 54 2 80 -10 80 -37 0 -13 -4
-27 -10 -30 -17 -10 -11 -61 8 -78 26 -23 46 -21 78 8 43 40 66 31 83 -30 16
-62 31 -78 62 -66 14 5 40 23 57 41 37 37 57 31 91 -25 16 -27 27 -35 49 -35
33 0 52 16 52 45 0 22 26 65 40 65 5 0 22 -11 38 -25 49 -41 92 -28 92 29 0
14 0 38 0 53 0 15 5 32 10 37 10 10 54 11 105 4 15 -2 22 5 29 34 8 34 7 40
-17 62 -15 14 -27 34 -27 45 0 25 36 51 71 51 32 0 49 18 44 45 -2 11 -4 23
-4 27 -1 4 -19 19 -41 33 -47 30 -50 48 -12 72 56 36 67 72 30 97 -12 9 -32
16 -43 16 -12 0 -30 6 -40 14 -19 14 -19 15 -2 50 24 52 22 82 -8 102 -24 16
-28 16 -58 -1 -49 -26 -72 -17 -71 25 1 19 4 45 7 58 4 15 -1 28 -15 42 -30
27 -49 25 -88 -10 -19 -17 -41 -29 -50 -28 -8 2 -25 23 -38 48 -37 75 -89 77
-117 4 -21 -55 -40 -56 -81 -7 -29 34 -34 37 -60 28 -24 -9 -31 -20 -41 -59
-13 -53 -26 -72 -41 -62 -7 4 -7 16 1 35 14 38 5 55 -44 86 -47 30 -43 40 21
52 36 7 47 14 54 36 14 40 -3 80 -39 90 -72 22 -77 34 -29 66 48 33 58 54 44
96 -6 19 -17 35 -23 36 -51 4 -150 3 -152 -1z m153 -53 c3 -21 -5 -31 -37 -52
-22 -15 -44 -24 -50 -21 -10 6 -31 69 -31 91 0 6 14 12 32 13 18 2 34 4 36 7
12 11 47 -15 50 -38z m19 -183 c22 -31 -5 -58 -61 -62 l-47 -3 6 38 c4 21 8
43 10 50 5 16 76 -1 92 -23z m-67 -159 c39 -25 52 -56 29 -70 -20 -13 -120
-11 -115 1 3 7 10 30 17 53 7 23 16 41 21 41 5 0 26 -11 48 -25z m471 -127
c177 -81 268 -303 201 -492 -53 -148 -165 -230 -330 -240 -210 -12 -365 106
-403 308 -29 161 40 322 174 400 104 61 255 71 358 24z m-547 -33 c29 -27 35
-72 10 -82 -8 -3 -33 2 -54 12 l-40 18 22 38 c12 22 25 39 28 39 4 0 19 -11
34 -25z m-95 -217 c-13 -24 -22 -23 -76 9 l-46 27 44 40 43 40 22 -49 c17 -35
20 -53 13 -67z"/>
<path d="M2615 1320 c-10 -46 -35 -57 -118 -54 -98 3 -262 14 -286 19 -11 2
-24 -2 -30 -9 -6 -7 -13 -68 -16 -137 -3 -68 -8 -145 -11 -170 -4 -34 -1 -49
11 -59 11 -9 14 -23 10 -51 -7 -44 2 -52 43 -38 23 8 54 6 124 -6 142 -24 150
-25 188 -17 33 8 29 10 -75 39 l-110 31 75 2 c41 1 118 2 172 2 l96 1 8 126
c11 180 11 251 -1 250 -5 0 -9 -13 -7 -30 1 -16 0 -29 -2 -29 -2 0 -16 36 -31
80 -15 44 -28 80 -30 80 -2 0 -6 -13 -10 -30z"/>
<path d="M1242 1061 c-24 -72 -26 -81 -13 -81 13 0 43 87 39 117 -3 23 -7 17
-26 -36z"/>
<path d="M1649 1083 c-2 -62 2 -97 12 -107 6 -6 9 -4 10 7 3 32 4 36 15 47 9
9 18 8 37 -5 14 -9 27 -12 30 -8 7 11 -75 103 -91 103 -7 0 -12 -15 -13 -37z"/>
<path d="M1296 1093 c-2 -10 -7 -44 -11 -75 -6 -64 10 -81 21 -23 8 45 19 44
44 -5 11 -22 23 -40 25 -40 9 0 26 51 31 92 4 24 2 38 -5 38 -10 0 -16 -17
-23 -65 -3 -16 -7 -13 -20 15 -9 20 -26 46 -37 58 -18 21 -20 22 -25 5z"/>
<path d="M1575 1078 c3 -13 9 -41 13 -62 11 -59 30 -57 22 1 -4 27 -11 56 -15
66 -11 25 -26 21 -20 -5z"/>
<path d="M1431 1076 c-4 -6 -7 -22 -6 -36 2 -14 4 -39 4 -56 1 -18 7 -34 16
-38 18 -6 77 17 94 38 18 21 5 73 -22 90 -26 17 -73 18 -86 2z m81 -40 c6 -32
-7 -62 -30 -68 -21 -6 -32 14 -32 58 0 45 54 53 62 10z"/>
</g>
</svg>
